<svg xmlns="http://www.w3.org/2000/svg" xmlns:xlink="http://www.w3.org/1999/xlink" width="500" zoomAndPan="magnify" viewBox="0 0 375 374.999991" height="500" preserveAspectRatio="xMidYMid meet" version="1.0"><defs><g/><clipPath id="2f5bbe25ee"><path d="M 25.40625 141.257812 L 154.40625 141.257812 L 154.40625 229 L 25.40625 229 Z M 25.40625 141.257812 " clip-rule="nonzero"/></clipPath></defs><g clip-path="url(#2f5bbe25ee)"><path fill="#1025db" d="M 109.210938 218.15625 L 103.59375 222.570312 C 89.390625 233.738281 68.507812 229.039062 60.539062 212.820312 L 25.40625 141.367188 L 39.871094 141.367188 C 50.933594 141.367188 61.027344 147.621094 65.871094 157.566406 L 89.039062 205.078125 C 90.726562 208.539062 93.195312 211.554688 96.292969 213.84375 C 99.402344 216.140625 103.667969 218.105469 109.042969 217.953125 C 107.796875 216.386719 106.699219 214.710938 105.773438 212.824219 L 70.640625 141.367188 L 85.101562 141.367188 C 96.164062 141.367188 106.257812 147.621094 111.105469 157.566406 L 134.273438 205.078125 C 135.960938 208.539062 138.429688 211.554688 141.523438 213.84375 C 144.71875 216.203125 149.132812 218.21875 154.722656 217.9375 L 148.820312 222.570312 C 136.347656 232.386719 118.707031 229.902344 109.210938 218.15625 Z M 138.882812 171.699219 L 154.738281 141.265625 L 115.128906 141.277344 L 130.417969 171.640625 C 132.160156 175.105469 137.09375 175.140625 138.882812 171.699219 Z M 138.882812 171.699219 " fill-opacity="1" fill-rule="nonzero"/></g><g fill="#1025db" fill-opacity="1"><g transform="translate(172.845754, 214.499986)"><g><path d="M 14.1875 0 L 1.90625 -54.78125 L 14.859375 -54.78125 L 22.984375 -10.296875 L 23.828125 -10.296875 L 33.359375 -54.78125 L 48.46875 -54.78125 L 58.09375 -10.296875 L 58.9375 -10.296875 L 67.140625 -54.78125 L 79.4375 -54.78125 L 66.984375 0 L 50.296875 0 L 41.078125 -44.328125 L 40.421875 -44.328125 L 31.203125 0 Z M 14.1875 0 "/></g></g></g><g fill="#1025db" fill-opacity="1"><g transform="translate(251.688252, 214.499986)"><g><path d="M 15.609375 1.15625 C 13.171875 1.15625 11.007812 0.6875 9.125 -0.25 C 7.25 -1.1875 5.769531 -2.554688 4.6875 -4.359375 C 3.613281 -6.160156 3.078125 -8.359375 3.078125 -10.953125 C 3.078125 -13.992188 3.753906 -16.398438 5.109375 -18.171875 C 6.460938 -19.941406 8.203125 -21.296875 10.328125 -22.234375 C 12.460938 -23.179688 14.71875 -23.863281 17.09375 -24.28125 C 19.476562 -24.695312 21.691406 -25.039062 23.734375 -25.3125 C 25.617188 -25.59375 27.140625 -25.882812 28.296875 -26.1875 C 29.460938 -26.488281 30.304688 -26.929688 30.828125 -27.515625 C 31.359375 -28.097656 31.625 -28.882812 31.625 -29.875 C 31.625 -30.988281 31.375 -31.957031 30.875 -32.78125 C 30.375 -33.613281 29.625 -34.289062 28.625 -34.8125 C 27.632812 -35.34375 26.335938 -35.609375 24.734375 -35.609375 C 23.179688 -35.609375 21.710938 -35.332031 20.328125 -34.78125 C 18.953125 -34.226562 17.78125 -33.382812 16.8125 -32.25 C 15.84375 -31.113281 15.191406 -29.6875 14.859375 -27.96875 L 4.234375 -30.953125 C 4.835938 -33.335938 5.757812 -35.382812 7 -37.09375 C 8.25 -38.8125 9.757812 -40.238281 11.53125 -41.375 C 13.300781 -42.507812 15.289062 -43.351562 17.5 -43.90625 C 19.71875 -44.457031 22.128906 -44.734375 24.734375 -44.734375 C 28.109375 -44.734375 30.984375 -44.316406 33.359375 -43.484375 C 35.742188 -42.660156 37.664062 -41.40625 39.125 -39.71875 C 40.59375 -38.03125 41.671875 -35.984375 42.359375 -33.578125 C 43.054688 -31.171875 43.40625 -28.414062 43.40625 -25.3125 L 43.40625 -17.84375 C 43.40625 -15.957031 43.429688 -14.003906 43.484375 -11.984375 C 43.546875 -9.972656 43.644531 -7.96875 43.78125 -5.96875 C 43.914062 -3.976562 44.066406 -1.988281 44.234375 0 L 33.703125 0 C 33.535156 -1.488281 33.351562 -3.132812 33.15625 -4.9375 C 32.96875 -6.738281 32.84375 -8.578125 32.78125 -10.453125 L 31.375 -10.453125 C 30.601562 -8.347656 29.492188 -6.394531 28.046875 -4.59375 C 26.609375 -2.800781 24.835938 -1.394531 22.734375 -0.375 C 20.640625 0.644531 18.265625 1.15625 15.609375 1.15625 Z M 20.671875 -7.546875 C 21.722656 -7.546875 22.785156 -7.722656 23.859375 -8.078125 C 24.941406 -8.441406 25.992188 -8.984375 27.015625 -9.703125 C 28.035156 -10.429688 28.972656 -11.347656 29.828125 -12.453125 C 30.691406 -13.554688 31.375 -14.800781 31.875 -16.1875 L 31.703125 -22.734375 L 33.609375 -22.40625 C 32.671875 -21.6875 31.550781 -21.117188 30.25 -20.703125 C 28.945312 -20.296875 27.585938 -19.976562 26.171875 -19.75 C 24.765625 -19.53125 23.367188 -19.28125 21.984375 -19 C 20.609375 -18.726562 19.363281 -18.367188 18.25 -17.921875 C 17.144531 -17.484375 16.257812 -16.875 15.59375 -16.09375 C 14.9375 -15.320312 14.609375 -14.273438 14.609375 -12.953125 C 14.609375 -11.285156 15.175781 -9.96875 16.3125 -9 C 17.445312 -8.03125 18.898438 -7.546875 20.671875 -7.546875 Z M 20.671875 -7.546875 "/></g></g></g><g fill="#1025db" fill-opacity="1"><g transform="translate(299.906716, 214.499986)"><g><path d="M 19.921875 1.15625 C 17.765625 1.15625 15.851562 0.851562 14.1875 0.25 C 12.53125 -0.351562 11.109375 -1.25 9.921875 -2.4375 C 8.734375 -3.632812 7.75 -5.078125 6.96875 -6.765625 C 6.195312 -8.453125 5.613281 -10.390625 5.21875 -12.578125 C 4.832031 -14.765625 4.640625 -17.1875 4.640625 -19.84375 L 4.640625 -43.578125 L 16.6875 -43.578125 L 16.6875 -22.5 C 16.6875 -21.28125 16.726562 -19.894531 16.8125 -18.34375 C 16.894531 -16.789062 17.171875 -15.28125 17.640625 -13.8125 C 18.109375 -12.351562 18.867188 -11.148438 19.921875 -10.203125 C 20.972656 -9.265625 22.4375 -8.796875 24.3125 -8.796875 C 25.863281 -8.796875 27.207031 -9.164062 28.34375 -9.90625 C 29.476562 -10.65625 30.457031 -11.734375 31.28125 -13.140625 C 32.113281 -14.554688 32.738281 -16.21875 33.15625 -18.125 C 33.570312 -20.039062 33.804688 -22.132812 33.859375 -24.40625 L 33.859375 -43.578125 L 45.8125 -43.578125 L 45.8125 0 L 36.109375 0 L 36.109375 -13.9375 L 34.609375 -13.9375 C 33.890625 -10.394531 32.894531 -7.515625 31.625 -5.296875 C 30.351562 -3.085938 28.757812 -1.457031 26.84375 -0.40625 C 24.9375 0.632812 22.628906 1.15625 19.921875 1.15625 Z M 19.921875 1.15625 "/></g></g></g></svg>