<svg xmlns="http://www.w3.org/2000/svg" xmlns:xlink="http://www.w3.org/1999/xlink" width="800" zoomAndPan="magnify" viewBox="0 0 600 225" height="300" preserveAspectRatio="xMidYMid meet" version="1.0"><defs><g/><clipPath id="44619fd9f3"><path d="M 0 28.410156 L 238.5 28.410156 L 238.5 190 L 0 190 Z M 0 28.410156 " clip-rule="nonzero"/></clipPath><clipPath id="c4a43715fe"><rect x="0" width="329" y="0" height="185"/></clipPath></defs><g clip-path="url(#44619fd9f3)"><path fill="#1025db" d="M 154.421875 170.101562 L 144.074219 178.238281 C 117.902344 198.816406 79.421875 190.15625 64.738281 160.273438 L 0 28.601562 L 26.652344 28.601562 C 47.035156 28.601562 65.636719 40.125 74.566406 58.449219 L 117.257812 146.003906 C 120.367188 152.382812 124.914062 157.941406 130.621094 162.15625 C 136.351562 166.390625 144.210938 170.011719 154.117188 169.730469 C 151.824219 166.839844 149.796875 163.75 148.09375 160.277344 L 83.351562 28.601562 L 110 28.601562 C 130.386719 28.601562 148.988281 40.125 157.914062 58.449219 L 200.605469 146.003906 C 203.714844 152.382812 208.265625 157.941406 213.96875 162.15625 C 219.855469 166.507812 227.992188 170.214844 238.292969 169.699219 L 227.417969 178.238281 C 204.429688 196.324219 171.929688 191.746094 154.421875 170.101562 Z M 209.105469 84.496094 L 238.320312 28.417969 L 165.332031 28.4375 L 193.507812 84.386719 C 196.71875 90.769531 205.804688 90.835938 209.105469 84.496094 Z M 209.105469 84.496094 " fill-opacity="1" fill-rule="nonzero"/></g><g transform="matrix(1, 0, 0, 1, 271, 20)"><g clip-path="url(#c4a43715fe)"><g fill="#1025db" fill-opacity="1"><g transform="translate(0.664403, 143.364231)"><g><path d="M 26.15625 0 L 3.515625 -100.921875 L 27.375 -100.921875 L 42.359375 -18.96875 L 43.890625 -18.96875 L 61.46875 -100.921875 L 89.3125 -100.921875 L 107.046875 -18.96875 L 108.578125 -18.96875 L 123.71875 -100.921875 L 146.34375 -100.921875 L 123.40625 0 L 92.671875 0 L 75.703125 -81.65625 L 74.46875 -81.65625 L 57.5 0 Z M 26.15625 0 "/></g></g></g><g fill="#1025db" fill-opacity="1"><g transform="translate(145.936449, 143.364231)"><g><path d="M 28.75 2.140625 C 24.257812 2.140625 20.28125 1.273438 16.8125 -0.453125 C 13.351562 -2.191406 10.628906 -4.71875 8.640625 -8.03125 C 6.648438 -11.34375 5.65625 -15.394531 5.65625 -20.1875 C 5.65625 -25.789062 6.90625 -30.222656 9.40625 -33.484375 C 11.90625 -36.753906 15.113281 -39.253906 19.03125 -40.984375 C 22.957031 -42.710938 27.113281 -43.957031 31.5 -44.71875 C 35.882812 -45.488281 39.960938 -46.128906 43.734375 -46.640625 C 47.203125 -47.148438 50.003906 -47.6875 52.140625 -48.25 C 54.285156 -48.8125 55.84375 -49.625 56.8125 -50.6875 C 57.78125 -51.757812 58.265625 -53.210938 58.265625 -55.046875 C 58.265625 -57.085938 57.804688 -58.875 56.890625 -60.40625 C 55.972656 -61.9375 54.59375 -63.1875 52.75 -64.15625 C 50.914062 -65.125 48.523438 -65.609375 45.578125 -65.609375 C 42.710938 -65.609375 40.003906 -65.097656 37.453125 -64.078125 C 34.910156 -63.054688 32.75 -61.5 30.96875 -59.40625 C 29.1875 -57.320312 27.988281 -54.695312 27.375 -51.53125 L 7.796875 -57.046875 C 8.921875 -61.421875 10.628906 -65.1875 12.921875 -68.34375 C 15.210938 -71.507812 17.988281 -74.132812 21.25 -76.21875 C 24.519531 -78.3125 28.191406 -79.867188 32.265625 -80.890625 C 36.347656 -81.910156 40.785156 -82.421875 45.578125 -82.421875 C 51.796875 -82.421875 57.09375 -81.65625 61.46875 -80.125 C 65.851562 -78.601562 69.394531 -76.285156 72.09375 -73.171875 C 74.800781 -70.066406 76.789062 -66.296875 78.0625 -61.859375 C 79.34375 -57.421875 79.984375 -52.347656 79.984375 -46.640625 L 79.984375 -32.875 C 79.984375 -29.40625 80.03125 -25.8125 80.125 -22.09375 C 80.226562 -18.375 80.40625 -14.675781 80.65625 -11 C 80.914062 -7.332031 81.195312 -3.664062 81.5 0 L 62.09375 0 C 61.78125 -2.75 61.445312 -5.78125 61.09375 -9.09375 C 60.738281 -12.40625 60.507812 -15.796875 60.40625 -19.265625 L 57.796875 -19.265625 C 56.367188 -15.390625 54.332031 -11.796875 51.6875 -8.484375 C 49.039062 -5.171875 45.78125 -2.570312 41.90625 -0.6875 C 38.03125 1.195312 33.644531 2.140625 28.75 2.140625 Z M 38.078125 -13.921875 C 40.015625 -13.921875 41.976562 -14.25 43.96875 -14.90625 C 45.957031 -15.570312 47.894531 -16.566406 49.78125 -17.890625 C 51.664062 -19.210938 53.394531 -20.894531 54.96875 -22.9375 C 56.550781 -24.976562 57.800781 -27.269531 58.71875 -29.8125 L 58.421875 -41.90625 L 61.9375 -41.28125 C 60.195312 -39.957031 58.128906 -38.910156 55.734375 -38.140625 C 53.335938 -37.378906 50.835938 -36.796875 48.234375 -36.390625 C 45.640625 -35.984375 43.066406 -35.523438 40.515625 -35.015625 C 37.972656 -34.503906 35.679688 -33.84375 33.640625 -33.03125 C 31.597656 -32.21875 29.96875 -31.097656 28.75 -29.671875 C 27.53125 -28.242188 26.921875 -26.304688 26.921875 -23.859375 C 26.921875 -20.796875 27.960938 -18.375 30.046875 -16.59375 C 32.140625 -14.8125 34.816406 -13.921875 38.078125 -13.921875 Z M 38.078125 -13.921875 "/></g></g></g><g fill="#1025db" fill-opacity="1"><g transform="translate(234.781871, 143.364231)"><g><path d="M 36.703125 2.140625 C 32.722656 2.140625 29.203125 1.578125 26.140625 0.453125 C 23.085938 -0.660156 20.460938 -2.3125 18.265625 -4.5 C 16.078125 -6.695312 14.269531 -9.347656 12.84375 -12.453125 C 11.414062 -15.566406 10.34375 -19.132812 9.625 -23.15625 C 8.914062 -27.1875 8.5625 -31.648438 8.5625 -36.546875 L 8.5625 -80.28125 L 30.734375 -80.28125 L 30.734375 -41.4375 C 30.734375 -39.195312 30.8125 -36.648438 30.96875 -33.796875 C 31.125 -30.941406 31.632812 -28.160156 32.5 -25.453125 C 33.363281 -22.753906 34.765625 -20.535156 36.703125 -18.796875 C 38.640625 -17.066406 41.34375 -16.203125 44.8125 -16.203125 C 47.664062 -16.203125 50.132812 -16.890625 52.21875 -18.265625 C 54.3125 -19.648438 56.125 -21.640625 57.65625 -24.234375 C 59.1875 -26.835938 60.332031 -29.894531 61.09375 -33.40625 C 61.851562 -36.925781 62.285156 -40.773438 62.390625 -44.953125 L 62.390625 -80.28125 L 84.40625 -80.28125 L 84.40625 0 L 66.515625 0 L 66.515625 -25.6875 L 63.765625 -25.6875 C 62.441406 -19.164062 60.609375 -13.863281 58.265625 -9.78125 C 55.921875 -5.707031 52.988281 -2.703125 49.46875 -0.765625 C 45.945312 1.171875 41.691406 2.140625 36.703125 2.140625 Z M 36.703125 2.140625 "/></g></g></g></g></g></svg>