<svg xmlns="http://www.w3.org/2000/svg" xmlns:xlink="http://www.w3.org/1999/xlink" width="500" zoomAndPan="magnify" viewBox="0 0 375 299.999988" height="400" preserveAspectRatio="xMidYMid meet" version="1.0"><defs><clipPath id="1238733cec"><path d="M 0 23.515625 L 375 23.515625 L 375 277 L 0 277 Z M 0 23.515625 " clip-rule="nonzero"/></clipPath></defs><g clip-path="url(#1238733cec)"><path fill="#1025db" d="M 242.972656 246.460938 L 226.6875 259.265625 C 185.507812 291.644531 124.960938 278.015625 101.863281 231 L 0 23.824219 L 41.933594 23.824219 C 74.007812 23.824219 103.273438 41.957031 117.324219 70.789062 L 184.492188 208.546875 C 189.386719 218.582031 196.542969 227.328125 205.515625 233.960938 C 214.539062 240.621094 226.898438 246.324219 242.492188 245.878906 C 238.882812 241.332031 235.691406 236.46875 233.011719 231.007812 L 131.144531 23.824219 L 173.078125 23.824219 C 205.152344 23.824219 234.417969 41.957031 248.464844 70.789062 L 315.636719 208.546875 C 320.527344 218.582031 327.6875 227.328125 336.660156 233.960938 C 345.925781 240.804688 358.722656 246.644531 374.929688 245.828125 L 357.820312 259.265625 C 321.648438 287.722656 270.511719 280.519531 242.972656 246.460938 Z M 329.007812 111.769531 L 374.976562 23.535156 L 260.132812 23.566406 L 304.464844 111.601562 C 309.515625 121.644531 323.816406 121.742188 329.007812 111.769531 Z M 329.007812 111.769531 " fill-opacity="1" fill-rule="nonzero"/></g></svg>